<?xml version="1.0" standalone="no"?>
<!DOCTYPE svg PUBLIC "-//W3C//DTD SVG 20010904//EN"
 "http://www.w3.org/TR/2001/REC-SVG-20010904/DTD/svg10.dtd">
<svg version="1.0" xmlns="http://www.w3.org/2000/svg"
 width="374.000000pt" height="233.000000pt" viewBox="0 0 374.000000 233.000000"
 preserveAspectRatio="xMidYMid meet">

<g transform="translate(0.000000,233.000000) scale(0.100000,-0.100000)"
fill="#000000" stroke="none">
<path d="M1695 2046 c-16 -7 -51 -38 -77 -68 -26 -30 -64 -63 -85 -73 -149
-68 -150 -68 -163 -185 -8 -68 -16 -94 -46 -144 -20 -34 -39 -80 -42 -103 -4
-37 1 -52 37 -111 35 -59 43 -82 51 -152 5 -45 17 -94 25 -107 10 -14 52 -41
98 -63 66 -30 92 -49 135 -98 63 -74 87 -81 198 -58 72 15 84 15 151 0 106
-23 131 -16 195 58 43 50 68 68 135 99 47 22 88 48 98 62 9 14 20 61 24 106 7
69 14 91 46 142 44 71 54 125 32 166 -68 126 -77 148 -77 192 0 104 -33 148
-135 182 -26 9 -63 37 -106 81 -86 88 -102 94 -207 72 -78 -16 -87 -16 -160
-1 -91 20 -89 20 -127 3z m56 -542 c12 -24 12 -28 -9 -44 -13 -11 -18 -21 -12
-25 9 -6 15 -55 6 -55 -2 0 -13 -3 -23 -6 -15 -6 -16 -4 -5 7 16 18 15 34 -4
53 -14 14 -14 16 0 16 21 0 41 39 27 53 -6 6 -13 9 -15 6 -15 -15 -64 -109
-57 -109 4 0 8 -7 8 -15 0 -8 -4 -15 -9 -15 -4 0 -8 7 -8 15 0 13 -4 13 -27
-2 l-28 -17 21 25 c11 13 36 50 54 82 38 63 59 71 81 31z m137 -36 c-22 -35
-47 -68 -55 -75 -12 -9 -8 -14 22 -28 50 -24 39 -28 -23 -8 -47 15 -50 18 -32
30 10 7 36 40 58 72 33 50 37 61 23 64 -9 3 -2 5 16 6 l32 1 -41 -62z m296 27
c-22 -54 -17 -63 17 -22 17 20 34 37 39 37 5 0 -2 -12 -16 -27 -15 -16 -37
-47 -51 -70 -14 -24 -27 -43 -30 -43 -7 0 8 102 19 123 18 35 -3 15 -36 -34
-19 -28 -45 -58 -57 -66 -23 -15 -23 -15 2 13 14 16 38 47 53 69 24 36 25 40
9 47 -11 4 -2 7 24 7 l42 1 -15 -35z m161 5 c0 -13 -4 -25 -10 -27 -5 -1 -10
11 -10 27 0 17 5 29 10 27 6 -2 10 -14 10 -27z m-729 4 c-23 -23 -20 -52 7
-57 15 -4 12 -5 -8 -4 -20 1 -31 8 -33 20 -4 19 24 57 40 57 5 0 2 -7 -6 -16z
m183 -10 c-10 -13 -10 -19 0 -36 10 -16 10 -19 -1 -16 -18 6 -23 49 -6 59 20
13 22 11 7 -7z m250 0 c-10 -13 -10 -19 0 -36 10 -16 10 -19 -1 -16 -18 6 -23
49 -6 59 20 13 22 11 7 -7z m-509 -79 c-7 -8 -10 -22 -6 -30 3 -8 1 -15 -5
-15 -5 0 -12 7 -15 15 -7 16 12 45 28 45 6 0 5 -7 -2 -15z m435 1 c-11 -8 -16
-19 -12 -30 4 -9 2 -16 -3 -16 -15 0 -12 47 3 53 24 10 31 7 12 -7z m-45 -45
c0 -10 -7 -21 -15 -25 -12 -4 -13 -2 -5 13 7 14 6 21 -3 24 -7 3 -5 6 6 6 10
1 17 -6 17 -18z"/>
<path d="M440 419 l0 -282 128 5 c84 3 140 10 164 21 50 21 78 68 78 131 0 43
-4 53 -38 86 -26 26 -50 40 -80 45 -23 4 -42 10 -42 14 0 4 18 13 39 20 22 6
52 26 66 43 24 28 27 39 22 82 -8 88 -64 116 -234 116 l-103 0 0 -281z m194
257 c45 -19 66 -52 66 -104 0 -85 -42 -122 -136 -122 l-44 0 0 120 0 120 40 0
c22 0 56 -6 74 -14z m21 -260 c61 -26 90 -106 65 -181 -17 -52 -59 -75 -137
-75 l-63 0 0 135 0 135 50 0 c28 0 66 -6 85 -14z"/>
<path d="M1082 424 c-98 -239 -121 -306 -96 -282 3 3 22 50 43 104 l37 99 109
0 110 0 41 -100 41 -100 41 -3 c23 -2 42 -2 42 0 0 15 -237 552 -245 555 -5 1
-61 -122 -123 -273z m146 61 c23 -55 42 -106 42 -112 0 -10 -26 -13 -95 -13
-75 0 -95 3 -95 14 0 8 13 45 29 82 16 38 36 87 45 108 9 23 20 36 25 30 4 -5
27 -54 49 -109z"/>
<path d="M1590 420 l0 -280 198 2 197 2 -157 3 -158 4 0 274 0 275 -40 0 -40
0 0 -280z"/>
<path d="M2112 469 l3 -230 41 -39 c105 -98 315 -69 376 51 16 30 18 61 16
244 l-2 210 -5 -210 c-7 -241 -13 -261 -91 -304 -54 -30 -147 -34 -197 -8 -61
32 -67 57 -71 300 l-4 217 -35 0 -34 0 3 -231z"/>
<path d="M2730 430 c0 -170 4 -270 10 -270 6 0 11 95 12 250 l3 249 177 -232
c98 -128 189 -245 202 -262 l25 -30 1 283 c0 178 -4 282 -10 282 -6 0 -11 -82
-12 -212 l-3 -212 -159 212 -158 212 -44 0 -44 0 0 -270z"/>
<path d="M3340 420 l0 -280 35 0 35 0 0 280 0 280 -35 0 -35 0 0 -280z"/>
</g>
</svg>
